<svg class="thumb" width="200" height="200" viewBox="0,0,600,600" xmlns="http://www.w3.org/2000/svg" xmlns:inkscape="http://www.inkscape.org/namespaces/inkscape" xmlns:sodipodi="http://sodipodi.sourceforge.net/DTD/sodipodi-0.dtd" xmlns:xlink="http://www.w3.org/1999/xlink" xmlns:ns1="http://www.inkscape.org/namespaces/inkscape" xmlns:sketch="http://www.bohemiancoding.com/sketch/ns">
  <defs></defs>
  <g transform="matrix(1.1397,0,0,1.1397,-25.5888,271.8489)">
    <g transform="matrix(0.5,0,0,0.5,45.874,0.7)">
      <svg width="958.7000000000002" height="160" style="overflow: visible;">
        <defs>
          <linearGradient x1="0" y1="0.5" x2="1" y2="0.5" id="linearGradientSkjqsdm1m6">
            <stop offset="0%" stop-color="#000000"></stop>
            <stop offset="100%" stop-color="#000000"></stop>
          </linearGradient>
        </defs>
        <g transform="matrix(1,0,0,1,0,75)">
          <path d="M 5.8 0L 5.8-72L 71.5-72L 71.5-63.9L 13.9-63.9L 13.9-40.1L 60.2-40.1L 60.2-31.9L 13.9-31.9L 13.9 0L 5.8 0ZM 89.70000000000005-72L 89.70000000000005-72L 137.70000000000005-72Q 142.70000000000005-72  146.20000000000005-68.5Q 149.70000000000005-65  149.70000000000005-60L 149.70000000000005-60L 149.70000000000005-12Q 149.70000000000005-7  146.20000000000005-3.5Q 142.70000000000005 0  137.70000000000005 0L 137.70000000000005 0L 89.70000000000005 0Q 84.70000000000006 0  81.20000000000006-3.5Q 77.70000000000006-7  77.70000000000006-12L 77.70000000000006-12L 77.70000000000006-60Q 77.70000000000006-65  81.20000000000006-68.5Q 84.70000000000006-72  89.70000000000005-72ZM 89.70000000000005-8.1L 89.70000000000005-8.1L 137.70000000000005-8.1Q 139.30000000000007-8.1  140.45000000000005-9.25Q 141.60000000000005-10.4  141.60000000000005-12L 141.60000000000005-12L 141.60000000000005-60Q 141.60000000000005-61.6  140.45000000000005-62.75Q 139.30000000000007-63.9  137.70000000000005-63.9L 137.70000000000005-63.9L 89.70000000000005-63.9Q 88.10000000000005-63.9  86.95000000000006-62.75Q 85.80000000000005-61.6  85.80000000000005-60L 85.80000000000005-60L 85.80000000000005-12Q 85.80000000000005-10.4  86.95000000000006-9.25Q 88.10000000000005-8.1  89.70000000000005-8.1ZM 232.50000000000009-72L 232.50000000000009-63.9L 172.70000000000007-63.9Q 171.10000000000008-63.9  169.95000000000007-62.75Q 168.80000000000007-61.6  168.80000000000007-60L 168.80000000000007-60L 168.80000000000007-12Q 168.80000000000007-10.4  169.95000000000007-9.25Q 171.10000000000008-8.1  172.70000000000007-8.1L 172.70000000000007-8.1L 232.50000000000009-8.1L 232.50000000000009 0L 172.70000000000007 0Q 167.70000000000007 0  164.20000000000007-3.5Q 160.70000000000007-7  160.70000000000007-12L 160.70000000000007-12L 160.70000000000007-60Q 160.70000000000007-65  164.20000000000007-68.5Q 167.70000000000007-72  172.70000000000007-72L 172.70000000000007-72L 232.50000000000009-72ZM 254.7000000000001-72L 254.7000000000001-72L 302.7000000000001-72Q 307.7000000000001-72  311.2000000000001-68.5Q 314.7000000000001-65  314.7000000000001-60L 314.7000000000001-60L 314.7000000000001-12Q 314.7000000000001-7  311.2000000000001-3.5Q 307.7000000000001 0  302.7000000000001 0L 302.7000000000001 0L 254.7000000000001 0Q 249.7000000000001 0  246.2000000000001-3.5Q 242.7000000000001-7  242.7000000000001-12L 242.7000000000001-12L 242.7000000000001-60Q 242.7000000000001-65  246.2000000000001-68.5Q 249.7000000000001-72  254.7000000000001-72ZM 254.7000000000001-8.1L 254.7000000000001-8.1L 302.7000000000001-8.1Q 304.30000000000007-8.1  305.4500000000001-9.25Q 306.6000000000001-10.4  306.6000000000001-12L 306.6000000000001-12L 306.6000000000001-60Q 306.6000000000001-61.6  305.4500000000001-62.75Q 304.30000000000007-63.9  302.7000000000001-63.9L 302.7000000000001-63.9L 254.7000000000001-63.9Q 253.1000000000001-63.9  251.9500000000001-62.75Q 250.8000000000001-61.6  250.8000000000001-60L 250.8000000000001-60L 250.8000000000001-12Q 250.8000000000001-10.4  251.9500000000001-9.25Q 253.1000000000001-8.1  254.7000000000001-8.1ZM 416.6000000000002-12L 416.6000000000002-12L 416.6000000000002-72L 424.70000000000016-72L 424.70000000000016-12Q 424.70000000000016-7  421.20000000000016-3.5Q 417.70000000000016 0  412.70000000000016 0L 412.70000000000016 0L 364.70000000000016 0Q 359.70000000000016 0  356.20000000000016-3.5Q 352.70000000000016-7  352.70000000000016-12L 352.70000000000016-12L 352.70000000000016-72L 360.8000000000002-72L 360.8000000000002-12Q 360.8000000000002-10.4  361.95000000000016-9.25Q 363.1000000000002-8.1  364.70000000000016-8.1L 364.70000000000016-8.1L 412.70000000000016-8.1Q 414.3000000000002-8.1  415.45000000000016-9.25Q 416.6000000000002-10.4  416.6000000000002-12ZM 435.5000000000002-58L 482.5000000000002-58Q 487.5000000000002-58  491.05000000000024-54.45Q 494.60000000000025-50.9  494.60000000000025-45.9L 494.60000000000025-45.9L 494.60000000000025-12.1Q 494.60000000000025-7.1  491.05000000000024-3.55Q 487.5000000000002 0  482.5000000000002 0L 482.5000000000002 0L 443.7000000000003 0L 443.7000000000003 23L 435.5000000000002 23L 435.5000000000002-58ZM 486.40000000000026-12.1L 486.40000000000026-12.1L 486.40000000000026-45.9Q 486.40000000000026-47.5  485.2500000000002-48.65Q 484.10000000000025-49.8  482.5000000000002-49.8L 482.5000000000002-49.8L 447.7000000000003-49.8Q 446.10000000000025-49.8  444.90000000000026-48.65Q 443.7000000000003-47.5  443.7000000000003-45.9L 443.7000000000003-45.9L 443.7000000000003-12.1Q 443.7000000000003-10.5  444.90000000000026-9.35Q 446.10000000000025-8.2  447.7000000000003-8.2L 447.7000000000003-8.2L 482.5000000000002-8.2Q 484.10000000000025-8.2  485.2500000000002-9.35Q 486.40000000000026-10.5  486.40000000000026-12.1ZM 510.10000000000036-58L 548.9000000000003-58Q 553.9000000000003-58  557.4500000000004-54.45Q 561.0000000000003-50.9  561.0000000000003-45.9L 561.0000000000003-45.9L 561.0000000000003 0L 552.8000000000003 0L 552.8000000000003-45.9Q 552.8000000000003-47.5  551.6500000000003-48.65Q 550.5000000000003-49.8  548.9000000000003-49.8L 548.9000000000003-49.8L 514.1000000000004-49.8Q 512.5000000000003-49.8  511.30000000000035-48.65Q 510.10000000000036-47.5  510.10000000000036-45.9L 510.10000000000036-45.9L 510.10000000000036 0L 501.9000000000003 0L 501.9000000000003-77L 510.10000000000036-77L 510.10000000000036-58ZM 580.5000000000003-58L 580.5000000000003-58L 615.3000000000003-58Q 620.4000000000003-58  623.9500000000003-54.45Q 627.5000000000003-50.9  627.5000000000003-45.9L 627.5000000000003-45.9L 627.5000000000003-12.1Q 627.5000000000003-7.1  623.9500000000003-3.55Q 620.4000000000003 0  615.3000000000003 0L 615.3000000000003 0L 580.5000000000003 0Q 575.5000000000003 0  571.9500000000003-3.55Q 568.4000000000003-7.1  568.4000000000003-12.1L 568.4000000000003-12.1L 568.4000000000003-45.9Q 568.4000000000003-50.9  571.9500000000003-54.45Q 575.5000000000003-58  580.5000000000003-58ZM 615.3000000000003-49.8L 615.3000000000003-49.8L 580.5000000000003-49.8Q 578.9000000000003-49.8  577.7500000000003-48.65Q 576.6000000000003-47.5  576.6000000000003-45.9L 576.6000000000003-45.9L 576.6000000000003-12.1Q 576.6000000000003-10.5  577.7500000000003-9.35Q 578.9000000000003-8.2  580.5000000000003-8.2L 580.5000000000003-8.2L 615.3000000000003-8.2Q 616.9000000000003-8.2  618.0500000000003-9.35Q 619.2000000000003-10.5  619.2000000000003-12.1L 619.2000000000003-12.1L 619.2000000000003-45.9Q 619.2000000000003-47.5  618.0500000000003-48.65Q 616.9000000000003-49.8  615.3000000000003-49.8ZM 635.7000000000004-12.1L 635.7000000000004-77L 643.9000000000003-77L 643.9000000000003-12.1Q 643.9000000000003-10.5  645.0500000000003-9.35Q 646.2000000000004-8.2  647.8000000000003-8.2L 647.8000000000003-8.2L 657.6000000000004-8.2L 657.6000000000004 0L 647.8000000000003 0Q 642.8000000000003 0  639.2500000000003-3.55Q 635.7000000000004-7.1  635.7000000000004-12.1L 635.7000000000004-12.1ZM 724.6000000000005-45.9L 724.6000000000005-45.9L 724.6000000000005-45.1L 716.3000000000005-45.1L 716.3000000000005-45.9Q 716.3000000000005-47.5  715.1500000000005-48.65Q 714.0000000000005-49.8  712.4000000000005-49.8L 712.4000000000005-49.8L 677.6000000000005-49.8Q 676.0000000000005-49.8  674.8500000000005-48.65Q 673.7000000000005-47.5  673.7000000000005-45.9L 673.7000000000005-45.9L 673.7000000000005-37Q 673.7000000000005-35.4  674.8500000000005-34.25Q 676.0000000000005-33.1  677.6000000000005-33.1L 677.6000000000005-33.1L 712.4000000000005-33.1Q 717.5000000000005-33.1  721.0500000000005-29.55Q 724.6000000000005-26  724.6000000000005-21L 724.6000000000005-21L 724.6000000000005-12.1Q 724.6000000000005-7.1  721.0500000000005-3.55Q 717.5000000000005 0  712.4000000000005 0L 712.4000000000005 0L 677.6000000000005 0Q 672.6000000000005 0  669.0500000000005-3.55Q 665.5000000000005-7.1  665.5000000000005-12.1L 665.5000000000005-12.1L 665.5000000000005-12.9L 673.7000000000005-12.9L 673.7000000000005-12.1Q 673.7000000000005-10.5  674.8500000000005-9.35Q 676.0000000000005-8.2  677.6000000000005-8.2L 677.6000000000005-8.2L 712.4000000000005-8.2Q 714.0000000000005-8.2  715.1500000000005-9.35Q 716.3000000000005-10.5  716.3000000000005-12.1L 716.3000000000005-12.1L 716.3000000000005-21Q 716.3000000000005-22.6  715.1500000000005-23.75Q 714.0000000000005-24.9  712.4000000000005-24.9L 712.4000000000005-24.9L 677.6000000000005-24.9Q 672.6000000000005-24.9  669.0500000000005-28.45Q 665.5000000000005-32  665.5000000000005-37L 665.5000000000005-37L 665.5000000000005-45.9Q 665.5000000000005-50.9  669.0500000000005-54.45Q 672.6000000000005-58  677.6000000000005-58L 677.6000000000005-58L 712.4000000000005-58Q 717.5000000000005-58  721.0500000000005-54.45Q 724.6000000000005-50.9  724.6000000000005-45.9ZM 767.9000000000005-58L 767.9000000000005-49.8L 742.8000000000005-49.8L 742.8000000000005-12.1Q 742.8000000000005-10.5  743.9500000000005-9.35Q 745.1000000000005-8.2  746.7000000000005-8.2L 746.7000000000005-8.2L 767.9000000000005-8.2L 767.9000000000005 0L 746.7000000000005 0Q 741.6000000000005 0  738.1000000000005-3.55Q 734.6000000000005-7.1  734.6000000000005-12.1L 734.6000000000005-12.1L 734.6000000000005-77L 742.8000000000005-77L 742.8000000000005-58L 767.9000000000005-58ZM 787.5000000000005-58L 822.3000000000004-58Q 827.4000000000004-58  830.9500000000004-54.45Q 834.5000000000005-50.9  834.5000000000005-45.9L 834.5000000000005-45.9L 834.5000000000005-24.9L 783.6000000000004-24.9L 783.6000000000004-12.1Q 783.6000000000004-10.5  784.7500000000005-9.35Q 785.9000000000004-8.2  787.5000000000005-8.2L 787.5000000000005-8.2L 834.5000000000005-8.2L 834.5000000000005 0L 787.5000000000005 0Q 782.5000000000005 0  778.9500000000004-3.55Q 775.4000000000004-7.1  775.4000000000004-12.1L 775.4000000000004-12.1L 775.4000000000004-45.9Q 775.4000000000004-50.9  778.9500000000004-54.45Q 782.5000000000005-58  787.5000000000005-58L 787.5000000000005-58ZM 783.6000000000004-45.9L 783.6000000000004-33.1L 826.2000000000004-33.1L 826.2000000000004-45.9Q 826.2000000000004-47.5  825.0500000000004-48.65Q 823.9000000000004-49.8  822.3000000000004-49.8L 822.3000000000004-49.8L 787.5000000000005-49.8Q 785.9000000000004-49.8  784.7500000000005-48.65Q 783.6000000000004-47.5  783.6000000000004-45.9L 783.6000000000004-45.9ZM 856.3000000000004-58L 856.3000000000004-58L 888.9000000000004-58L 888.9000000000004-49.8L 856.3000000000004-49.8Q 854.7000000000005-49.8  853.5500000000004-48.65Q 852.4000000000004-47.5  852.4000000000004-45.9L 852.4000000000004-45.9L 852.4000000000004 0L 844.2000000000005 0L 844.2000000000005-45.9Q 844.2000000000005-50.9  847.7500000000005-54.45Q 851.3000000000004-58  856.3000000000004-58ZM 953.4000000000005-57.8L 953.4000000000005 10.8Q 953.4000000000005 15.9  949.9000000000005 19.45Q 946.4000000000005 23  941.3000000000005 23L 941.3000000000005 23L 905.1000000000005 23L 905.1000000000005 14.7L 941.3000000000005 14.7Q 942.9000000000005 14.7  944.0500000000005 13.55Q 945.2000000000005 12.4  945.2000000000005 10.8L 945.2000000000005 10.8L 945.2000000000005 0L 906.5000000000005 0Q 901.5000000000005 0  897.9500000000005-3.55Q 894.4000000000005-7.1  894.4000000000005-12.1L 894.4000000000005-12.1L 894.4000000000005-57.8L 902.6000000000005-57.8L 902.6000000000005-12.1Q 902.6000000000005-10.5  903.7500000000005-9.35Q 904.9000000000005-8.2  906.5000000000005-8.2L 906.5000000000005-8.2L 941.3000000000005-8.2Q 942.9000000000005-8.2  944.0500000000005-9.35Q 945.2000000000005-10.5  945.2000000000005-12.1L 945.2000000000005-12.1L 945.2000000000005-57.8L 953.4000000000005-57.8Z" data-textpath="FOCO Upholstery" data-text-anchor="middle" data-font-size="100" data-letterspacing="0" data-side="left" data-offset="0.5" data-dx="0" data-dy="0" data-xmlspace="preserve" data-href="" data-font="Orbitron" data-font-src="/Content/clientfonts/orbitron.woff" data-font-scale="contain" transform="translate(0,0)" data-x="0" data-y="0" fill="#fff"></path>
        </g>
      </svg>
    </g>
  </g>
</svg>