<?xml version="1.0" standalone="no"?>
<!DOCTYPE svg PUBLIC "-//W3C//DTD SVG 20010904//EN"
 "http://www.w3.org/TR/2001/REC-SVG-20010904/DTD/svg10.dtd">
<svg version="1.0" xmlns="http://www.w3.org/2000/svg"
 width="580.000000pt" height="580.000000pt" viewBox="0 0 580.000000 580.000000"
 preserveAspectRatio="xMidYMid meet">

<g transform="translate(0.000000,580.000000) scale(0.100000,-0.100000)"
fill="#000000" stroke="none">
<path d="M477 3493 c-4 -3 -7 -258 -7 -565 l0 -558 65 0 65 0 0 250 0 250 365
0 365 0 0 60 0 60 -365 0 -365 0 0 190 0 190 453 2 452 3 0 60 0 60 -511 3
c-281 1 -514 -1 -517 -5z"/>
<path d="M1736 3485 c-50 -18 -104 -70 -117 -115 -7 -22 -9 -188 -7 -462 l3
-426 31 -39 c61 -76 45 -74 540 -71 l441 3 37 29 c75 57 76 59 76 526 0 381
-2 418 -19 455 -22 50 -69 91 -119 105 -60 16 -817 13 -866 -5z m868 -137 c14
-19 16 -76 16 -418 0 -385 -1 -397 -20 -418 -21 -22 -22 -22 -425 -22 -392 0
-406 1 -425 20 -19 19 -20 33 -20 418 0 344 2 401 16 420 l15 22 414 0 414 0
15 -22z"/>
<path d="M3046 3485 c-47 -17 -94 -59 -112 -102 -11 -26 -14 -117 -14 -450 0
-385 2 -421 19 -458 21 -46 54 -79 94 -94 19 -7 197 -11 523 -11 l494 0 0 60
0 60 -485 0 c-472 0 -486 1 -505 20 -19 19 -20 33 -20 419 0 365 1 401 18 420
17 21 22 21 502 24 l485 2 3 63 3 62 -483 0 c-384 -1 -491 -4 -522 -15z"/>
<path d="M4337 3486 c-45 -17 -82 -48 -105 -91 -15 -26 -17 -81 -20 -435 -2
-274 1 -419 8 -449 15 -59 43 -97 90 -121 37 -19 61 -20 470 -20 299 0 438 3
453 11 32 17 77 60 93 91 11 22 14 107 14 460 0 490 2 475 -79 533 l-43 30
-421 2 c-341 2 -429 0 -460 -11z m865 -133 c17 -15 18 -41 18 -421 0 -363 -2
-407 -17 -424 -15 -17 -41 -18 -421 -18 -363 0 -407 2 -424 17 -17 15 -18 42
-18 424 0 357 2 410 16 423 13 14 66 16 421 16 364 0 408 -2 425 -17z"/>
</g>
</svg>
